<?xml version="1.0" encoding="UTF-8" standalone="no"?>
<!-- Creator: CorelDRAW -->

<svg
   xmlns:dc="http://purl.org/dc/elements/1.1/"
   xmlns:cc="http://creativecommons.org/ns#"
   xmlns:rdf="http://www.w3.org/1999/02/22-rdf-syntax-ns#"
   xmlns:svg="http://www.w3.org/2000/svg"
   xmlns="http://www.w3.org/2000/svg"
   xmlns:xlink="http://www.w3.org/1999/xlink"
   xmlns:sodipodi="http://sodipodi.sourceforge.net/DTD/sodipodi-0.dtd"
   xmlns:inkscape="http://www.inkscape.org/namespaces/inkscape"
   xml:space="preserve"
   width="214.09456"
   height="236.6328"
   style="fill-rule:evenodd"
   viewBox="0 0 2.2301514 2.4649251"
   id="svg2"
   version="1.1"
   inkscape:version="0.92.1 r15371"
   sodipodi:docname="sensetif_symbol.svg"
   inkscape:export-filename="/home/niclas/dev/sensetif/artwork/sensetif_symbol-64x55.png"
   inkscape:export-xdpi="25.964277"
   inkscape:export-ydpi="25.964277"><metadata
     id="metadata152"><rdf:RDF><cc:Work
         rdf:about=""><dc:format>image/svg+xml</dc:format><dc:type
           rdf:resource="http://purl.org/dc/dcmitype/StillImage" /><dc:title></dc:title></cc:Work></rdf:RDF></metadata><sodipodi:namedview
     pagecolor="#ffffff"
     bordercolor="#666666"
     borderopacity="1"
     objecttolerance="10"
     gridtolerance="10"
     guidetolerance="10"
     inkscape:pageopacity="0"
     inkscape:pageshadow="2"
     inkscape:window-width="1920"
     inkscape:window-height="1015"
     id="namedview150"
     showgrid="false"
     inkscape:zoom="2"
     inkscape:cx="377.55415"
     inkscape:cy="114.05422"
     inkscape:window-x="0"
     inkscape:window-y="0"
     inkscape:window-maximized="1"
     inkscape:current-layer="svg2"
     fit-margin-top="0"
     fit-margin-left="0"
     fit-margin-right="0"
     fit-margin-bottom="0" /><defs
     id="defs4"><mask
       id="id0"><linearGradient
         id="id1"
         gradientUnits="userSpaceOnUse"
         x1="4.79987"
         y1="2.5520501"
         x2="4.6979399"
         y2="2.06076"><stop
           offset="0"
           style="stop-opacity:1; stop-color:white"
           id="stop59" /><stop
           offset="1"
           style="stop-opacity:0; stop-color:white"
           id="stop61" /></linearGradient><rect
         style="fill:url(#id1)"
         x="4.53617"
         y="1.88881"
         width="0.425488"
         height="0.835177"
         id="rect63" /></mask><mask
       id="id2"><linearGradient
         id="id3"
         gradientUnits="userSpaceOnUse"
         x1="5.1718702"
         y1="2.08727"
         x2="5.1057301"
         y2="1.88817"><stop
           offset="0"
           style="stop-opacity:1; stop-color:white"
           id="stop67" /><stop
           offset="1"
           style="stop-opacity:0; stop-color:white"
           id="stop69" /></linearGradient><rect
         style="fill:url(#id3)"
         x="4.9720001"
         y="1.7982"
         width="0.33359799"
         height="0.37902799"
         id="rect71" /></mask><mask
       id="id4"><linearGradient
         id="id5"
         gradientUnits="userSpaceOnUse"
         x1="3.7470901"
         y1="6.6592398"
         x2="3.64517"
         y2="6.1679401"><stop
           offset="0"
           style="stop-opacity:1; stop-color:white"
           id="stop75" /><stop
           offset="1"
           style="stop-opacity:0; stop-color:white"
           id="stop77" /></linearGradient><rect
         style="fill:url(#id5)"
         x="3.4833901"
         y="5.9959998"
         width="0.425488"
         height="0.835177"
         id="rect79" /></mask><mask
       id="id6"><linearGradient
         id="id7"
         gradientUnits="userSpaceOnUse"
         x1="4.1190901"
         y1="6.1944599"
         x2="4.0529499"
         y2="5.9953499"><stop
           offset="0"
           style="stop-opacity:1; stop-color:white"
           id="stop83" /><stop
           offset="1"
           style="stop-opacity:0; stop-color:white"
           id="stop85" /></linearGradient><rect
         style="fill:url(#id7)"
         x="3.91922"
         y="5.9053898"
         width="0.33359799"
         height="0.37902799"
         id="rect87" /></mask><linearGradient
       id="id8"
       gradientUnits="userSpaceOnUse"
       x1="4.3356199"
       y1="6.19526"
       x2="3.91118"
       y2="6.26688"><stop
         offset="0"
         style="stop-color:#007B3E"
         id="stop90" /><stop
         offset="1"
         style="stop-color:#84C225"
         id="stop92" /></linearGradient><linearGradient
       id="id9"
       gradientUnits="userSpaceOnUse"
       xlink:href="#id8"
       x1="5.3884001"
       y1="2.0880599"
       x2="4.9639602"
       y2="2.1596899" /><linearGradient
       id="id10"
       gradientUnits="userSpaceOnUse"
       x1="5.1311402"
       y1="2.7976899"
       x2="5.3447299"
       y2="1.52019"><stop
         offset="0"
         style="stop-color:#11418A"
         id="stop96" /><stop
         offset="0.54902"
         style="stop-color:#0093DD"
         id="stop98" /><stop
         offset="1"
         style="stop-color:#75C5F0"
         id="stop100" /></linearGradient><linearGradient
       id="id11"
       gradientUnits="userSpaceOnUse"
       x1="5.6554098"
       y1="2.83552"
       x2="4.7844701"
       y2="2.4851401"><stop
         offset="0"
         style="stop-color:#0061A5"
         id="stop103" /><stop
         offset="1"
         style="stop-color:#0093DD"
         id="stop105" /></linearGradient><linearGradient
       id="id12"
       gradientUnits="userSpaceOnUse"
       xlink:href="#id11"
       x1="5.5047302"
       y1="2.1472199"
       x2="5.2818098"
       y2="1.5977" /><radialGradient
       id="id13"
       gradientUnits="userSpaceOnUse"
       cx="4.1290598"
       cy="6.1494198"
       r="0.25321701"
       fx="4.1290598"
       fy="6.1494198"><stop
         offset="0"
         style="stop-color:#84C225"
         id="stop109" /><stop
         offset="1"
         style="stop-color:#007B3E"
         id="stop111" /></radialGradient><radialGradient
       id="id14"
       gradientUnits="userSpaceOnUse"
       xlink:href="#id13"
       cx="5.1818399"
       cy="2.0422299"
       r="0.25321701"
       fx="5.1818399"
       fy="2.0422299" /><linearGradient
       inkscape:collect="always"
       xlink:href="#id10"
       id="linearGradient3137"
       gradientUnits="userSpaceOnUse"
       x1="5.1311402"
       y1="2.7976899"
       x2="5.3447299"
       y2="1.52019" /><linearGradient
       inkscape:collect="always"
       xlink:href="#id11"
       id="linearGradient3139"
       gradientUnits="userSpaceOnUse"
       x1="5.6554098"
       y1="2.83552"
       x2="4.7844701"
       y2="2.4851401" /><radialGradient
       inkscape:collect="always"
       xlink:href="#id13"
       id="radialGradient3141"
       gradientUnits="userSpaceOnUse"
       cx="4.1290598"
       cy="6.1494198"
       fx="4.1290598"
       fy="6.1494198"
       r="0.25321701" /><linearGradient
       inkscape:collect="always"
       xlink:href="#id8"
       id="linearGradient3143"
       gradientUnits="userSpaceOnUse"
       x1="4.3356199"
       y1="6.19526"
       x2="3.91118"
       y2="6.26688" /><linearGradient
       inkscape:collect="always"
       xlink:href="#id11"
       id="linearGradient3161"
       gradientUnits="userSpaceOnUse"
       x1="5.5047302"
       y1="2.1472199"
       x2="5.2818098"
       y2="1.5977"
       gradientTransform="translate(-0.71133475,0.30614407)" /><linearGradient
       inkscape:collect="always"
       xlink:href="#id8"
       id="linearGradient3164"
       gradientUnits="userSpaceOnUse"
       x1="5.3884001"
       y1="2.0880599"
       x2="4.9639602"
       y2="2.1596899"
       gradientTransform="translate(-0.71133475,0.30614407)" /><radialGradient
       inkscape:collect="always"
       xlink:href="#id13"
       id="radialGradient3168"
       gradientUnits="userSpaceOnUse"
       cx="5.1818399"
       cy="2.0422299"
       fx="5.1818399"
       fy="2.0422299"
       r="0.25321701"
       gradientTransform="translate(-0.71133475,0.30614407)" /><linearGradient
       inkscape:collect="always"
       xlink:href="#id11"
       id="linearGradient3171"
       gradientUnits="userSpaceOnUse"
       x1="5.6554098"
       y1="2.83552"
       x2="4.7844701"
       y2="2.4851401"
       gradientTransform="translate(-0.71133475,0.30614407)" /><linearGradient
       inkscape:collect="always"
       xlink:href="#id10"
       id="linearGradient3175"
       gradientUnits="userSpaceOnUse"
       x1="5.1311402"
       y1="2.7976899"
       x2="5.3447299"
       y2="1.52019"
       gradientTransform="translate(-0.71133475,0.30614407)" /><linearGradient
       inkscape:collect="always"
       xlink:href="#id10"
       id="linearGradient3090"
       gradientUnits="userSpaceOnUse"
       gradientTransform="translate(-0.71133475,0.30614407)"
       x1="5.1311402"
       y1="2.7976899"
       x2="5.3447299"
       y2="1.52019" /><linearGradient
       inkscape:collect="always"
       xlink:href="#id11"
       id="linearGradient3092"
       gradientUnits="userSpaceOnUse"
       gradientTransform="translate(-0.71133475,0.30614407)"
       x1="5.6554098"
       y1="2.83552"
       x2="4.7844701"
       y2="2.4851401" /><radialGradient
       inkscape:collect="always"
       xlink:href="#id13"
       id="radialGradient3094"
       gradientUnits="userSpaceOnUse"
       gradientTransform="translate(-0.71133475,0.30614407)"
       cx="5.1818399"
       cy="2.0422299"
       fx="5.1818399"
       fy="2.0422299"
       r="0.25321701" /><linearGradient
       inkscape:collect="always"
       xlink:href="#id8"
       id="linearGradient3096"
       gradientUnits="userSpaceOnUse"
       gradientTransform="translate(-0.71133475,0.30614407)"
       x1="5.3884001"
       y1="2.0880599"
       x2="4.9639602"
       y2="2.1596899" /><linearGradient
       inkscape:collect="always"
       xlink:href="#id11"
       id="linearGradient3098"
       gradientUnits="userSpaceOnUse"
       gradientTransform="translate(-0.71133475,0.30614407)"
       x1="5.5047302"
       y1="2.1472199"
       x2="5.2818098"
       y2="1.5977" /><font
       vert-adv-y="90"
       vert-origin-y="90"
       vert-origin-x="45"
       horiz-origin-y="0"
       horiz-origin-x="0"
       inkscape:label="font 1"
       id="font3060"
       horiz-adv-x="1024"><font-face
         font-family="SVGFont 1"
         id="font-face3062"
         units-per-em="1024" /><missing-glyph
         id="missing-glyph3064"
         d="m -4.9375,1033.7188 -7.5,-42.9063 L -32.8125,980 -16.5,951.15625 l -1.59375,-45.8125 17.5625,25.09375 19.375,-17.5 -5.4375,44.34375 13.5625,35 -20.9375,2.34375 -10.96875,39.0938 z" /><glyph
         unicode="a"
         d="m 195.34375,955.6875 c -38.21638,-3e-4 -69.10752,-7.9384 -92.625,-23.8125 -22.92998,-16.4627 -37.3082,-39.09715 -43.1875,-67.90625 -3.52679,-16.4626 -3.24079,-30.01095 0.875,-40.59375 2.35152,-12.3469 8.53615,-21.75145 18.53125,-28.21875 8.81909,-7.0553 27.62822,-13.81385 56.4375,-20.28125 4.1163,-1.1765 6.15625,-1.7502 6.15625,-1.75 l 1.78125,-0.90625 c 50.563,-11.7588 74.05879,-27.02955 70.53125,-45.84375 -2.35177,-12.3469 -9.11039,-21.75145 -20.28125,-28.21875 -10.5831,-6.4673 -24.99257,-9.71905 -43.21875,-9.71875 -20.57795,-3e-4 -35.8489,4.1439 -45.84375,12.375 -9.9951,7.0553 -14.39526,19.39285 -13.21875,37.03125 l -61.75,0 C 24.8277,704.33085 31.58632,679.0502 49.8125,662 c 16.46241,-17.0504 44.6761,-25.59375 84.65625,-25.59375 38.80414,0 70.556,8.25635 95.25,24.71875 24.69324,17.6384 40.28244,42.3134 46.75,74.0625 2.93953,14.6984 2.36529,28.2156 -1.75,40.5625 -4.11604,11.1709 -11.4799,20.28825 -22.0625,27.34375 -7.64358,3.5276 -14.97618,7.06595 -22.03125,10.59375 -4.7038,1.1757 -10.88817,2.64275 -18.53125,4.40625 -7.64332,2.3518 -16.15566,5.2847 -25.5625,8.8125 -4.7038,0.5877 -11.78066,2.3727 -21.1875,5.3125 -32.92483,7.643 -47.62153,19.3753 -44.09375,35.25 2.35152,11.7588 8.53616,20.87615 18.53125,27.34375 8.81909,6.4671 22.04907,9.71845 39.6875,9.71875 18.22618,-3e-4 32.03041,-3.82595 41.4375,-11.46875 4.11554,-4.116 7.04898,-9.1207 8.8125,-15 3.52728,-12.3471 12.07087,-18.53155 25.59375,-18.53125 l 35.28125,0 c 4.70329,29.3968 -1.19409,53.211 -17.65625,71.4375 -15.87466,16.4621 -41.7294,24.71845 -77.59375,24.71875 z m 1514.81245,-7.96875 c -24.1058,-2e-4 -42.3094,-4.97415 -54.6562,-14.96875 -13.5227,-10.5833 -22.3532,-26.4592 -26.4688,-47.625 l -48.5,-241.65625 59.9688,0 35.2812,177.28125 8.8126,0 c 7.643,0 15.007,2.646 22.0624,7.9375 7.0551,5.8793 11.4552,13.21195 13.2188,22.03125 l 2.6562,13.21875 -37.9374,0 3.5312,15.875 c 1.1758,7.0551 3.5347,11.772 7.0625,14.125 4.1152,2.3513 10.2687,3.53095 18.5,3.53125 l 15.875,0 9.7187,48.5 c -3.5277,0.5895 -8.5326,0.8748 -15,0.875 -3.5278,0.587 -8.2456,0.8748 -14.125,0.875 z m -316,-0.875 -52.0312,-259.28125 c -5.2915,-27.0455 3.2206,-41.45525 25.5625,-43.21875 22.3418,-1.7635 43.2228,-2.0515 62.625,-0.875 l 8.8125,45.875 -18.5,0 c -11.7601,0 -16.4755,4.97365 -14.125,14.96875 l 25.5625,130.53125 6.1875,0 c 8.231,0 15.8822,2.6457 22.9375,7.9375 7.055,5.8793 11.4552,13.2432 13.2187,22.0625 l 2.6563,12.34375 -36.1563,0 7.9376,39.6875 c 1.7637,8.2311 0.266,15.27665 -4.4376,21.15625 -4.7035,5.8793 -10.8568,8.8123 -18.5,8.8125 l -31.75,0 z m 145.2188,0 -9.6875,-48.5 61.7187,0 3.5313,18.53125 c 1.7637,8.231 0.2974,15.27675 -4.4063,21.15625 -4.7034,5.8793 -11.1751,8.8122 -19.4062,8.8125 l -31.75,0 z m -1083.28125,-63.5 c -33.51284,-3e-4 -61.72652,-10.8716 -84.65625,-32.625 -22.34172,-21.1663 -37.35693,-50.5594 -45,-88.1875 -7.64333,-39.3921 -4.39189,-69.67785 9.71875,-90.84375 14.69865,-21.754 38.79967,-32.625 72.3125,-32.625 27.63303,0 52.02129,6.75865 73.1875,20.28125 20.5777,12.9346 36.45389,31.7437 47.625,56.4375 l -44.09375,0 c -7.05557,0 -12.92171,-1.46675 -17.625,-4.40625 -4.11579,-2.9398 -6.4755,-5.299 -7.0625,-7.0625 -2.35203,-1.764 -4.42399,-3.51765 -6.1875,-5.28125 -1.76402,-1.1757 -3.51773,-2.06925 -5.28125,-2.65625 -7.64332,-4.1163 -16.4739,-6.15625 -26.46875,-6.15625 -15.28665,0 -25.87069,4.68665 -31.75,14.09375 -6.46806,8.8191 -8.22103,22.36735 -5.28125,40.59375 l 152.5625,0 c 0.587,1.1758 1.19424,3.21645 1.78125,6.15625 0.58951,0.5877 0.875,1.76775 0.875,3.53125 0.587,1.7638 1.19173,3.8344 1.78125,6.1875 7.64282,38.8041 4.10465,69.0585 -10.59375,90.8125 -15.28665,21.1657 -40.56715,31.7497 -75.84375,31.75 z m 258.09375,0 C 688.90575,882.16745 664.51748,874.8349 641,861.3125 c -23.51774,-13.5229 -39.39392,-40.2698 -47.625,-80.25 l -27.34375,-137.59375 61.75,0 29.96875,149.9375 c 2.93953,14.1104 9.1239,24.4075 18.53125,30.875 9.40684,6.4671 19.38564,9.6873 29.96875,9.6875 10.58285,-2e-4 19.41318,-3.2204 26.46875,-9.6875 7.64232,-6.4675 10.00203,-16.7646 7.0625,-30.875 l -23.8125,-119.9375 c -1.76402,-8.8191 -0.58429,-16.183 3.53125,-22.0625 4.70354,-5.2913 11.46191,-7.9375 20.28125,-7.9375 l 30.84375,0 27.34375,137.59375 c 8.23108,41.1559 2.65194,68.4771 -16.75,82 -18.81444,13.5226 -41.16199,20.28095 -67.03125,20.28125 z m 245.78125,0 c -28.2212,-3e-4 -52.3538,-6.75865 -72.34375,-20.28125 -19.9902,-14.6987 -32.3277,-33.2208 -37.03125,-55.5625 -3.52778,-17.6384 -0.27635,-31.7296 9.71875,-42.3125 8.23108,-10.5831 27.04021,-19.70065 56.4375,-27.34375 5.2913,-1.764 12.9424,-3.51775 22.9375,-5.28125 23.5175,-5.2916 34.3885,-13.2296 32.625,-23.8125 -1.764,-7.0553 -6.482,-12.66565 -14.125,-16.78125 -8.2314,-4.1163 -17.63595,-6.15625 -28.21875,-6.15625 -14.69865,0 -25.85668,2.9329 -33.5,8.8125 -7.05658,5.8793 -9.70102,14.70965 -7.9375,26.46875 l -59.96875,0 -0.90625,-2.65625 c -5.2913,-25.8695 -0.57339,-45.57105 14.125,-59.09375 13.52289,-13.5226 37.04966,-20.28125 70.5625,-20.28125 35.27663,0 62.8848,6.47165 82.875,19.40625 21.75385,14.1107 35.30195,34.09925 40.59375,59.96875 3.5275,17.6382 0.8816,31.76065 -7.9375,42.34375 -9.9951,9.9949 -29.12265,18.7939 -57.34375,26.4375 -2.352,-0.003 -4.998,0.288 -7.9375,0.875 -2.352,0.5888 -5.2849,1.47975 -8.8125,2.65625 -28.80926,6.4673 -42.32601,14.4052 -40.5625,23.8125 1.17577,7.0551 4.71419,12.3473 10.59375,15.875 7.05512,3.5281 16.45955,5.28095 28.21875,5.28125 12.3466,-3e-4 21.433,-2.6462 27.3125,-7.9375 1.7638,-2.3518 3.549,-4.68075 5.3125,-7.03125 4.1153,-9.9951 11.7664,-15.0003 22.93755,-15 l 37.9062,0 c 3.5273,23.5174 -1.7646,42.6138 -15.875,57.3125 -15.8747,13.5226 -39.08345,20.28095 -69.65625,20.28125 z m 256.34375,0 c -33.5128,-3e-4 -61.7578,-10.8716 -84.6875,-32.625 -22.3417,-21.1663 -37.3255,-50.5594 -44.9688,-88.1875 -7.6431,-39.3921 -4.423,-69.67785 9.6876,-90.84375 14.6985,-21.754 38.8308,-32.625 72.3437,-32.625 27.6332,0 52.0216,6.75865 73.1875,20.28125 20.578,12.9346 36.4539,31.7437 47.625,56.4375 l -44.0938,0 c -7.0554,0 -12.9213,-1.46675 -17.625,-4.40625 -4.1158,-2.9398 -6.4755,-5.299 -7.0624,-7.0625 -2.3519,-1.764 -4.424,-3.51765 -6.1876,-5.28125 -1.7639,-1.1757 -3.5177,-2.06925 -5.2812,-2.65625 -7.6433,-4.1163 -16.4736,-6.15625 -26.4688,-6.15625 -15.2863,0 -25.8706,4.68665 -31.75,14.09375 -6.4681,8.8191 -8.2209,22.36735 -5.2812,40.59375 l 152.5625,0 c 0.587,1.1758 1.1943,3.21645 1.7813,6.15625 0.5869,0.5877 0.8748,1.76775 0.875,3.53125 0.587,1.7638 1.1629,3.8344 1.75,6.1875 7.6429,38.8041 4.1358,69.0585 -10.5626,90.8125 -15.2866,21.1657 -40.5673,31.7497 -75.8437,31.75 z m 308.9375,-5.28125 -46.7188,-234.59375 61.7188,0 40.5625,204.625 c 1.7638,8.2308 0.2973,15.27645 -4.4063,21.15625 -4.7035,5.8791 -11.1751,8.8123 -19.4062,8.8125 l -31.75,0 z M 448.15625,832.21875 c 14.11039,0 24.08919,-4.1439 29.96875,-12.375 5.29131,-7.6436 7.07601,-19.3759 5.3125,-35.25 l -89.96875,0 c 3.52754,15.2864 10.28615,27.0187 20.28125,35.25 9.9951,8.2311 21.47138,12.375 34.40625,12.375 z m 760.21875,0 c 14.1104,0 24.0892,-4.1439 29.9688,-12.375 5.2913,-7.6436 7.076,-19.3759 5.3124,-35.25 l -89.9687,0 c 3.5275,15.2864 10.2861,27.0187 20.2813,35.25 9.9949,8.2311 21.4713,12.375 34.4062,12.375 z"
         id="glyph3066"
         glyph-name="glyph 1" /></font><linearGradient
       inkscape:collect="always"
       xlink:href="#id11"
       id="linearGradient3341"
       gradientUnits="userSpaceOnUse"
       gradientTransform="matrix(1.5110535,0,0,1.5110535,-6.8063578,-2.0362474)"
       x1="5.5047302"
       y1="2.1472199"
       x2="5.2818098"
       y2="1.5977" /><linearGradient
       inkscape:collect="always"
       xlink:href="#id8"
       id="linearGradient3344"
       gradientUnits="userSpaceOnUse"
       gradientTransform="matrix(1.5110535,0,0,1.5110535,-6.8063578,-2.0362474)"
       x1="5.3884001"
       y1="2.0880599"
       x2="4.9639602"
       y2="2.1596899" /><radialGradient
       inkscape:collect="always"
       xlink:href="#id13"
       id="radialGradient3348"
       gradientUnits="userSpaceOnUse"
       gradientTransform="matrix(1.5110535,0,0,1.5110535,-6.8063578,-2.0362474)"
       cx="5.1818399"
       cy="2.0422299"
       fx="5.1818399"
       fy="2.0422299"
       r="0.25321701" /><linearGradient
       inkscape:collect="always"
       xlink:href="#id11"
       id="linearGradient3351"
       gradientUnits="userSpaceOnUse"
       gradientTransform="matrix(1.5110535,0,0,1.5110535,-6.8063578,-2.0362474)"
       x1="5.6554098"
       y1="2.83552"
       x2="4.7844701"
       y2="2.4851401" /><linearGradient
       inkscape:collect="always"
       xlink:href="#id10"
       id="linearGradient3355"
       gradientUnits="userSpaceOnUse"
       gradientTransform="matrix(1.5110535,0,0,1.5110535,-6.8063578,-2.0362474)"
       x1="5.1311402"
       y1="2.7976899"
       x2="5.3447299"
       y2="1.52019" /><linearGradient
       inkscape:collect="always"
       xlink:href="#id8"
       id="linearGradient4153"
       x1="111.84816"
       y1="126.8964"
       x2="1254.2725"
       y2="126.8964"
       gradientUnits="userSpaceOnUse" /></defs><path
     inkscape:connector-curvature="0"
     style="fill:url(#linearGradient3355)"
     id="path116"
     d="m 0.3253011,0.78306116 c 0.0518095,-0.009852 0.13545991,6.1863e-4 0.19724537,0.0284773 0.053381,0.0240635 0.0989151,0.0665997 0.0693604,0.12691036 C 0.45889788,1.0882154 0.36860336,1.2395942 0.44583482,1.4490836 0.55809854,1.753502 0.97902818,1.9761497 1.2884194,1.9819975 c 0.092168,0.00174 0.1800059,-0.00923 0.2587952,-0.032869 l -1.904e-4,-5.651e-4 0.025546,-0.00762 c 0.045344,-0.015586 0.087331,-0.035605 0.1250125,-0.060021 l 0.017699,-0.012028 c 0.038913,-0.027699 0.072656,-0.060478 0.1000559,-0.098308 L 1.8258393,1.75535 C 1.898317,1.6448996 1.9189595,1.4942233 1.8606238,1.3034921 1.8145064,1.1527253 1.7026055,1.0438705 1.5662781,0.95652708 1.2098177,0.72813135 0.90075425,0.54585901 0.86968261,0.05576694 L 0.86617696,0 C 0.98725163,0.28477465 1.1315149,0.45081223 1.3888638,0.61809794 1.7533316,0.85498882 2.2529068,1.1848502 2.2293482,1.6658533 2.2036602,2.1902252 1.645255,2.4520832 1.1366841,2.3515331 0.72997785,2.2711209 0.30543226,2.0709894 0.11583585,1.681875 -0.03600085,1.3702701 0.00968736,0.98678442 0.325307,0.78307174 Z"
     class="fil0" /><path
     inkscape:connector-curvature="0"
     mask="url(#id0)"
     id="path118"
     d="M 4.71096,1.89453 C 4.741236,1.88842 4.790125,1.8949198 4.826236,1.912207 4.871208,1.933738 4.896358,1.972018 4.841051,2.023561 4.765783,2.093699 4.747401,2.209959 4.781401,2.30788 4.808224,2.385124 4.865208,2.453872 4.935555,2.508423 4.982193,2.649325 4.962831,2.732073 4.819882,2.719218 4.722717,2.653116 4.64052,2.565639 4.588536,2.452352 4.499804,2.258962 4.526505,2.020962 4.710961,1.894529 Z"
     style="fill:#75c5f0"
     class="fil1"
     transform="matrix(1.5110535,0,0,1.5110535,-6.8063578,-2.0362474)" /><path
     inkscape:connector-curvature="0"
     style="fill:url(#linearGradient3351)"
     id="path120"
     d="M 1.5110536e-6,1.3948414 C 0.00633282,1.9023121 0.40295248,2.2038382 0.83047334,2.3688816 1.3580155,2.5724628 1.9009657,2.4504482 2.1625138,2.0214163 l -0.058145,0.032166 C 1.8526058,2.3522826 1.4980855,2.4333083 1.1311308,2.3607596 0.72442458,2.2803474 0.29987899,2.0802099 0.11027668,1.6910955 0.06924704,1.6068814 0.0426661,1.5174135 0.03191647,1.4276599 L 0,1.3948383 Z"
     class="fil2" /><path
     inkscape:connector-curvature="0"
     style="fill:url(#radialGradient3348)"
     id="path122"
     d="M 0.70702329,0.79233903 C 0.67154375,0.73001714 0.71531897,0.67969453 0.79691284,0.66937856 0.91678622,0.65423176 1.0018451,0.71327014 1.0588012,0.81665793 1.1502728,0.96359881 1.2417458,1.1105397 1.3332236,1.2574866 1.4156712,1.4133397 1.2177474,1.4361188 1.1116169,1.4318229 1.0490336,1.4067424 1.0252254,1.3532421 0.99434407,1.2988079 0.90006339,1.1326222 0.80578438,0.96643506 0.71150961,0.80024335 c -0.001493,-0.002629 -0.002992,-0.005274 -0.004488,-0.007903 z"
     class="fil3" /><path
     inkscape:connector-curvature="0"
     mask="url(#id2)"
     id="path124"
     d="M 4.98315,1.87923 C 4.961185,1.840655 4.98829,1.809502 5.038804,1.803112 5.113017,1.793732 5.16567,1.830289 5.20093,1.894289 L 5.302131,2.05686 C 5.266328,2.111506 5.213206,2.153391 5.150233,2.173754 L 4.985934,1.884132 c -9.252e-4,-0.00163 -0.00186,-0.00327 -0.00278,-0.0049 z"
     style="fill:#ffffff"
     class="fil4"
     transform="matrix(1.5110535,0,0,1.5110535,-6.8063578,-2.0362474)" /><path
     inkscape:connector-curvature="0"
     style="fill:url(#linearGradient3344)"
     id="path126"
     d="m 0.69624963,0.8149595 c -0.0117862,0.0137959 -0.0202209,0.030756 -0.005455,0.0701567 0.063357,0.11417973 0.12671393,0.2283655 0.19007089,0.3425513 0.020851,0.036241 0.0417081,0.072484 0.0625546,0.1087248 C 1.0084907,1.4495007 1.0629898,1.5494811 1.2094789,1.5221869 1.2710876,1.5107029 1.3246998,1.4493707 1.346199,1.3819506 1.281937,1.4351412 1.1966637,1.4483236 1.1054657,1.4368955 1.0428824,1.411809 1.0190742,1.3583086 0.98819287,1.3038744 L 0.71988568,0.83092076 0.69624373,0.8149595 Z"
     class="fil5" /><path
     inkscape:connector-curvature="0"
     style="fill:url(#linearGradient3341)"
     id="path128"
     d="m 0.85918653,0.10827 c -0.0348676,0.29787398 0.10456037,0.51879151 0.32634057,0.69396643 0.1999652,0.157893 0.4489793,0.24049467 0.58558,0.46042547 0.041149,0.066231 0.060894,0.1421645 0.086422,0.215372 0.00449,-0.038425 0.00447,-0.080532 0.00135,-0.1251908 -0.00382,-0.015562 -0.00813,-0.031369 -0.013071,-0.047503 C 1.7996975,1.1545733 1.6877905,1.0457245 1.5514692,0.9583751 1.2076032,0.73805292 0.90786768,0.56060538 0.85922838,0.10837729 l -4.76e-5,-1.0714e-4 z"
     class="fil6" /></svg>